# xmcd
#
# Track frame offsets:
#	150
#	17109
#	30132
#	40992
#	54651
#	64568
#	74500
#	85940
#	97487
#	109830
#	120380
#	132599
#	145780
#	154148
#	163811
#	174044
#	185061
#	202721
#	215869
#	226340
#
# Disc length: 3204 seconds
#
# Revision: 1
# Processed by: cddbd v1.5.2PL0 Copyright (c) Steve Scherf et al.
# Submitted via: audiograbber 1.83.01
#
DISCID=1c0c8214
DTITLE=Various Artist - 200 Country Classics Vol.1  -  CD 2
DYEAR=2008
DGENRE=Country
TTITLE0=Glen Campbell - Southern Nights
TTITLE1=Slim Whitman - Red Sails In The Sunset
TTITLE2=Dolly Parton - It Wasn't God Who Made Honkytonk Angels
TTITLE3=The Kingston Trio - Tom Dooley
TTITLE4=Johnny Cash - Hey Porter
TTITLE5=Don Gibson - Lonesome Number One
TTITLE6=Patsy Cline - Walking After Midnight
TTITLE7=Holly Dunn - Are You Ever Gonna To Love Me
TTITLE8=Don Williams - There's Never Been A Time
TTITLE9=Faron Young - Live Fast, Love Hard, Die Young
TTITLE10=Billie Joe Spears - What I've Got In Mind
TTITLE11=Donna Fargo - Daddy
TTITLE12=Anne Murray - Paths Of Victory
TTITLE13=Ferlin Husky - The Wings Of A Dove
TTITLE14=Slim Whitman - Anytime You're Feeling Lonely
TTITLE15=Don Gibson - Sea Of Heartbreak
TTITLE16=Buck Owens - Country Girl
TTITLE17=Hank Williams - Hey Good Lookin'
TTITLE18=Faron Young - If You Ain't Loving
TTITLE19=Jack Greene - You Are My Treasure
EXTD=YEAR: 2008
EXTT0=
EXTT1=
EXTT2=
EXTT3=
EXTT4=
EXTT5=
EXTT6=
EXTT7=
EXTT8=
EXTT9=
EXTT10=
EXTT11=
EXTT12=
EXTT13=
EXTT14=
EXTT15=
EXTT16=
EXTT17=
EXTT18=
EXTT19=
PLAYORDER=
